<?xml version="1.0" encoding="UTF-8"?>
<svg id="svg8" width="256" height="256" version="1.1" viewBox="0 0 67.7 67.7" xmlns="http://www.w3.org/2000/svg">
 <g id="layer1" transform="translate(0 -229)">
  <path id="rect4519" transform="matrix(.265 0 0 .265 0 229)" d="m128 0c-70.9 0-128 57.1-128 128 0 70.9 57.1 128 128 128 70.9 0 128-57.1 128-128 0-70.9-57.1-128-128-128zm0 48a80 80 0 0 1 80 80 80 80 0 0 1-80 80 80 80 0 0 1-80-80 80 80 0 0 1 80-80z" style="fill:#fff;paint-order:normal"/>
  <path id="path4508" transform="matrix(.265 0 0 .265 0 229)" d="m128 24a104 104 0 0 0-104 104 104 104 0 0 0 104 104 104 104 0 0 0 62.7-21.2l17.7 16.9c8.32-6.7 15.8-14.4 22.2-23l-17.7-16.9a104 104 0 0 0 19.1-59.8 104 104 0 0 0-104-104zm0 32a72 72 0 0 1 72 72 72 72 0 0 1-10.6 37.4l-46.7-44.7-22.1 23.1 46.5 44.6a72 72 0 0 1-39.2 11.6 72 72 0 0 1-72-72 72 72 0 0 1 72-72z" style="paint-order:normal"/>
 </g>
</svg>
